<?xml version="1.0" standalone="no"?>
<!DOCTYPE svg PUBLIC "-//W3C//DTD SVG 20010904//EN"
 "http://www.w3.org/TR/2001/REC-SVG-20010904/DTD/svg10.dtd">
<svg version="1.0" xmlns="http://www.w3.org/2000/svg"
 width="378.000000pt" height="378.000000pt" viewBox="0 0 378.000000 378.000000"
 preserveAspectRatio="xMidYMid meet">
<metadata>
Created by potrace 1.15, written by Peter Selinger 2001-2017
</metadata>
<g transform="translate(0.000000,378.000000) scale(0.100000,-0.100000)"
fill="#000000" stroke="none">
<path d="M2777 3244 c-4 -4 5 -20 19 -37 40 -48 62 -98 80 -187 44 -219 -17
-304 -236 -330 -52 -6 -97 -13 -99 -16 -3 -3 0 -13 7 -22 30 -40 61 -121 67
-174 l6 -57 42 -6 c24 -4 87 -2 141 4 222 25 286 98 273 316 -14 237 -108 457
-214 502 -34 14 -75 17 -86 7z"/>
<path d="M1045 3221 c-110 -52 -254 -215 -313 -354 -23 -55 -26 -76 -27 -179
0 -130 9 -154 76 -193 30 -18 51 -20 194 -19 88 0 171 3 185 7 20 5 32 23 58
89 18 46 36 89 39 96 4 9 -16 12 -79 12 -105 0 -171 19 -215 62 -91 88 -52
239 108 424 56 65 46 88 -26 55z"/>
<path d="M1767 3000 c-27 -5 -68 -16 -90 -26 -23 -9 -77 -20 -120 -25 -83 -8
-140 -33 -145 -63 -4 -17 1 -18 34 -13 22 3 49 9 62 13 41 12 22 -12 -45 -59
-38 -25 -85 -63 -105 -84 -130 -134 -198 -386 -140 -517 36 -80 75 -46 111 95
25 98 40 102 53 14 7 -43 33 -18 64 62 54 137 131 226 252 291 68 36 129 44
117 15 -14 -37 -26 -139 -20 -173 19 -99 74 -75 155 68 22 40 40 61 50 59 8
-2 14 -8 13 -14 -16 -80 -16 -95 3 -91 10 2 34 24 53 50 l35 47 23 -80 c27
-94 65 -173 101 -211 31 -34 43 -35 68 -7 16 18 19 37 19 118 0 53 -4 106 -8
119 -7 18 -5 22 10 22 44 0 89 -71 148 -237 44 -125 55 -136 84 -90 72 117 33
309 -81 396 -87 67 -87 106 -1 94 57 -8 58 16 2 56 -48 35 -112 57 -191 67
-32 3 -58 11 -58 17 0 6 12 24 28 40 l27 29 -40 -6 c-65 -11 -76 -10 -160 8
-95 21 -241 28 -308 16z"/>
<path d="M1692 2644 c-95 -48 -180 -157 -218 -282 -20 -66 -31 -86 -51 -95
-18 -8 -29 -8 -44 1 -17 11 -21 7 -43 -40 -43 -98 -93 -114 -132 -44 -14 25
-24 34 -29 26 -4 -7 -10 -99 -13 -205 l-5 -192 42 -45 c22 -25 68 -60 101 -77
l60 -32 -6 44 c-22 157 86 371 235 466 164 105 385 100 552 -11 127 -85 219
-253 219 -400 0 -26 3 -48 7 -48 20 0 157 119 191 166 20 27 25 50 32 160 5
71 9 144 10 161 l0 33 45 -29 c51 -32 127 -56 150 -48 20 8 19 56 -2 87 -55
82 -173 171 -173 130 0 -6 22 -24 50 -41 50 -31 90 -76 90 -101 0 -7 -13 0
-28 17 -41 45 -92 85 -107 85 -7 0 -17 -12 -23 -28 -12 -35 -60 -92 -77 -92
-25 0 -42 28 -96 161 l-54 133 -12 -69 c-14 -76 -35 -113 -76 -133 -22 -11
-31 -10 -54 2 -32 16 -94 115 -125 199 l-21 57 -23 -25 c-27 -29 -78 -34 -92
-9 -8 14 -14 10 -38 -24 -32 -45 -80 -76 -108 -71 -38 8 -58 53 -65 141 -7 92
-13 99 -69 72z"/>
<path d="M1092 2415 c-98 -46 -172 -122 -172 -178 0 -17 7 -26 21 -30 32 -8
110 19 173 60 54 36 56 39 56 80 0 49 -5 51 -59 23 -37 -18 -68 -49 -102 -100
-26 -38 -34 -16 -10 24 29 46 76 87 129 110 41 18 55 36 30 36 -7 0 -37 -11
-66 -25z"/>
<path d="M2015 2061 c-49 -28 -155 -126 -155 -142 0 -17 -27 -9 -49 15 -35 38
-134 78 -183 74 -47 -3 -70 -27 -52 -55 17 -30 111 -71 190 -84 l74 -13 0 -43
c0 -24 -7 -54 -15 -67 -20 -31 -67 -50 -101 -42 -19 5 -25 3 -22 -6 11 -33
105 -15 133 25 l15 21 22 -21 c35 -31 63 -43 102 -43 24 0 36 5 36 14 0 9 -8
12 -25 8 -63 -12 -125 45 -125 113 0 41 1 42 42 54 52 16 191 104 218 138 59
75 -9 109 -105 54z"/>
<path d="M2530 1795 c-69 -72 -213 -162 -324 -202 -108 -39 -196 -54 -332 -60
-176 -7 -271 6 -428 58 -133 44 -204 81 -259 134 l-37 36 0 -54 c0 -48 -5 -59
-43 -109 -68 -88 -102 -170 -102 -250 0 -57 4 -70 24 -92 26 -28 76 -35 111
-16 29 15 41 64 30 121 -11 58 1 129 30 177 19 31 40 43 40 23 0 -6 -10 -27
-22 -48 -48 -80 -16 -279 66 -415 39 -66 59 -69 66 -9 3 25 10 46 15 48 6 2
18 -19 27 -45 18 -50 60 -98 76 -88 5 3 12 20 16 38 24 118 38 129 69 53 11
-25 23 -45 27 -45 13 0 55 54 70 89 22 54 41 36 80 -73 19 -55 40 -101 47
-103 7 -3 16 13 23 39 29 113 37 133 49 133 7 0 21 -20 30 -45 13 -37 21 -45
41 -45 19 0 32 12 57 55 53 91 50 88 67 67 8 -10 20 -42 26 -70 29 -125 41
-157 60 -157 25 0 59 50 80 118 10 31 22 58 28 60 6 2 17 -17 23 -43 6 -25 17
-44 23 -42 6 1 27 34 46 72 40 79 60 88 72 32 24 -116 64 -102 109 37 21 67
21 71 5 117 -14 38 -15 55 -7 86 15 54 13 153 -4 183 -17 30 -19 50 -4 50 5 0
19 -21 31 -46 20 -47 21 -84 2 -209 -8 -55 22 -95 72 -95 48 0 73 15 90 55 31
75 6 182 -73 319 -36 61 -48 92 -52 138 l-6 59 -35 -36z"/>
<path d="M1992 1080 c-17 -28 -43 -56 -58 -62 -25 -12 -29 -10 -55 21 l-28 34
-9 -24 c-5 -13 -13 -38 -16 -55 -4 -18 -16 -40 -27 -50 -18 -17 -20 -16 -45 7
-30 27 -63 93 -64 126 0 32 -19 39 -37 14 -45 -66 -88 -76 -111 -28 -14 30
-32 28 -32 -4 0 -35 -28 -89 -46 -89 -9 0 -34 18 -55 41 -36 39 -37 40 -45 17
-6 -19 3 -32 58 -83 59 -55 64 -62 58 -90 -12 -49 -11 -145 2 -188 28 -93 118
-128 178 -69 30 30 45 72 56 160 l7 52 51 -7 c28 -5 88 -7 134 -6 l82 2 0 -67
c0 -37 5 -83 10 -103 30 -109 150 -111 205 -3 16 31 20 61 21 144 l2 105 47
26 c60 33 132 94 139 116 3 10 -5 40 -18 67 l-24 49 -28 -58 c-36 -73 -55 -86
-85 -60 -21 19 -22 19 -33 1 -40 -67 -68 -96 -90 -96 -34 0 -50 27 -77 126
-13 46 -26 84 -30 84 -3 0 -20 -23 -37 -50z"/>
</g>
</svg>
